<svg xmlns="http://www.w3.org/2000/svg" xmlns:xlink="http://www.w3.org/1999/xlink" viewBox="0 0 15.999 15.999"><defs><style>.a{fill:url(#a);}</style><linearGradient id="a" x2="0" y2="1" gradientUnits="objectBoundingBox"><stop offset="0" stop-color="#8280ff"/><stop offset="1" stop-color="#7e96ff"/></linearGradient></defs><path class="a" d="M-6877-1838v-2h-2v-2h2v-2h2v2h2v2h-2v2Zm-12,0v-1a4.951,4.951,0,0,1,5-5h3v2h-3a2.91,2.91,0,0,0-2.8,2h5.8v2Zm3-11v-1a4.011,4.011,0,0,1,4-4,4.011,4.011,0,0,1,4,4v1a4.011,4.011,0,0,1-4,4A4.011,4.011,0,0,1-6886-1849Zm2-1v1a2.007,2.007,0,0,0,2,2,2.007,2.007,0,0,0,2-2v-1a2.006,2.006,0,0,0-2-2A2.006,2.006,0,0,0-6884-1850Z" transform="translate(6889 1854)"/></svg>