<svg xmlns="http://www.w3.org/2000/svg" viewBox="0 0 16 15.999"><defs><style>.a{fill:#b4b4c6;}</style></defs><path class="a" d="M-6987-1555a6.957,6.957,0,0,1,7-7,6.845,6.845,0,0,1,4.2,1.4l.9-.9-.8-.8a.966.966,0,0,1,0-1.4.968.968,0,0,1,1.4,0l3,3a.967.967,0,0,1,0,1.4.911.911,0,0,1-.7.3.912.912,0,0,1-.7-.3l-.8-.8-.9.9a6.847,6.847,0,0,1,1.4,4.2,6.957,6.957,0,0,1-7,7A6.957,6.957,0,0,1-6987-1555Zm2,0a4.952,4.952,0,0,0,5,5,4.953,4.953,0,0,0,5-5,4.951,4.951,0,0,0-5-5A4.951,4.951,0,0,0-6985-1555Zm4,1v-4h2v2h2v2Z" transform="translate(6987.001 1563.999)"/></svg>